HIERARCHY
ROOT newVegas:Hips
{
	OFFSET 0.000000 96.479958 0.000000
	CHANNELS 6 Xposition Yposition Zposition Xrotation Yrotation Zrotation
	JOINT newVegas:Pelvis
	{
		OFFSET 0.000000 0.000000 0.000000
		CHANNELS 3 Xrotation Yrotation Zrotation
		JOINT newVegas:LeftUpLeg
		{
			OFFSET 18.735201 -5.666702 -4.541200
			CHANNELS 3 Xrotation Yrotation Zrotation
			JOINT newVegas:LeftLeg
			{
				OFFSET -0.021200 -31.938179 0.493100
				CHANNELS 3 Xrotation Yrotation Zrotation
				JOINT newVegas:LeftFoot
				{
					OFFSET 0.021200 -31.938179 -4.336299
					CHANNELS 3 Xrotation Yrotation Zrotation
					JOINT newVegas:LeftToeBase
					{
						OFFSET 0.943001 -26.722000 15.023500
						CHANNELS 3 Xrotation Yrotation Zrotation
						End Site
						{
							OFFSET 0.000000 30.670183 0.000000
						}
					}
				}
				JOINT newVegas:Left_PantLeg
				{
					OFFSET 0.663870 -9.044666 -1.108900
					CHANNELS 3 Xrotation Yrotation Zrotation
					End Site
					{
						OFFSET 1.415995 20.635357 0.000000
					}
				}
			}
		}
		JOINT newVegas:RightUpLeg
		{
			OFFSET -18.735201 -5.666702 -4.541200
			CHANNELS 3 Xrotation Yrotation Zrotation
			JOINT newVegas:RightLeg
			{
				OFFSET 0.018946 -31.938133 0.493100
				CHANNELS 3 Xrotation Yrotation Zrotation
				JOINT newVegas:RightFoot
				{
					OFFSET -0.018946 -31.938126 -4.336299
					CHANNELS 3 Xrotation Yrotation Zrotation
					JOINT newVegas:RightToeBase
					{
						OFFSET -0.943001 -26.722004 15.023500
						CHANNELS 3 Xrotation Yrotation Zrotation
						End Site
						{
							OFFSET 0.000000 30.670187 0.000000
						}
					}
				}
				JOINT newVegas:Right_PantLeg
				{
					OFFSET -0.661674 -9.044716 -1.108900
					CHANNELS 3 Xrotation Yrotation Zrotation
					End Site
					{
						OFFSET -1.415958 20.635269 0.000000
					}
				}
			}
		}
	}
	JOINT newVegas:Spine
	{
		OFFSET 0.000000 10.199997 -0.299500
		CHANNELS 3 Xrotation Yrotation Zrotation
		JOINT newVegas:Spine1
		{
			OFFSET 0.000000 11.900002 -1.516600
			CHANNELS 3 Xrotation Yrotation Zrotation
			JOINT newVegas:Spine2
			{
				OFFSET 0.000000 13.600006 -2.842500
				CHANNELS 3 Xrotation Yrotation Zrotation
				JOINT newVegas:Neck
				{
					OFFSET 0.000000 9.624100 -2.890100
					CHANNELS 3 Xrotation Yrotation Zrotation
					JOINT newVegas:Head
					{
						OFFSET 0.000000 14.068802 -1.351900
						CHANNELS 3 Xrotation Yrotation Zrotation
						JOINT newVegas:Hair_Back
						{
							OFFSET 0.000000 3.231903 -17.524799
							CHANNELS 3 Xrotation Yrotation Zrotation
							End Site
							{
								OFFSET 0.000000 19.849884 0.000000
							}
						}
						JOINT newVegas:Hair_Front
						{
							OFFSET 0.000000 31.260406 4.573800
							CHANNELS 3 Xrotation Yrotation Zrotation
							JOINT newVegas:Hair_Front1
							{
								OFFSET 0.000000 2.284103 11.993300
								CHANNELS 3 Xrotation Yrotation Zrotation
								JOINT newVegas:Hair_Front2
								{
									OFFSET 0.000000 2.284103 11.993300
									CHANNELS 3 Xrotation Yrotation Zrotation
									End Site
									{
										OFFSET 0.000000 12.208862 0.000000
									}
								}
							}
						}
						JOINT newVegas:Jowel
						{
							OFFSET 0.000000 -7.458206 6.864100
							CHANNELS 3 Xrotation Yrotation Zrotation
							End Site
							{
								OFFSET 0.000000 19.849884 0.000000
							}
						}
					}
				}
				JOINT newVegas:LeftShoulder
				{
					OFFSET 15.263000 10.923401 -0.547700
					CHANNELS 3 Xrotation Yrotation Zrotation
					JOINT newVegas:LeftArm
					{
						OFFSET 25.438599 -2.830597 -13.032500
						CHANNELS 3 Xrotation Yrotation Zrotation
						JOINT newVegas:LeftForeArm
						{
							OFFSET 29.960503 0.000000 0.000000
							CHANNELS 3 Xrotation Yrotation Zrotation
							JOINT newVegas:LeftHand
							{
								OFFSET 27.849251 0.000000 0.000000
								CHANNELS 3 Xrotation Yrotation Zrotation
								JOINT newVegas:LeftHandThumb1
								{
									OFFSET 4.487587 -3.305161 6.305391
									CHANNELS 3 Xrotation Yrotation Zrotation
									JOINT newVegas:LeftHandThumb2
									{
										OFFSET 5.480453 -3.164139 3.164143
										CHANNELS 3 Xrotation Yrotation Zrotation
										JOINT newVegas:LeftHandThumb3
										{
											OFFSET 5.159721 -2.978973 2.978967
											CHANNELS 3 Xrotation Yrotation Zrotation
											End Site
											{
												OFFSET 2.494507 5.926697 1.738678
											}
										}
									}
								}
								JOINT newVegas:LeftHandIndex1
								{
									OFFSET 18.578728 -0.527832 5.208049
									CHANNELS 3 Xrotation Yrotation Zrotation
									JOINT newVegas:LeftHandIndex2
									{
										OFFSET 3.192009 0.000000 0.000000
										CHANNELS 3 Xrotation Yrotation Zrotation
										JOINT newVegas:LeftHandIndex3
										{
											OFFSET 3.835129 0.000000 0.000000
											CHANNELS 3 Xrotation Yrotation Zrotation
											End Site
											{
												OFFSET -0.034599 3.816971 0.371180
											}
										}
									}
								}
								JOINT newVegas:LeftHandMiddle1
								{
									OFFSET 18.476105 0.000000 0.000000
									CHANNELS 3 Xrotation Yrotation Zrotation
									JOINT newVegas:LeftHandMiddle2
									{
										OFFSET 3.324875 0.000000 0.000000
										CHANNELS 3 Xrotation Yrotation Zrotation
										JOINT newVegas:LeftHandMiddle3
										{
											OFFSET 4.596550 0.000000 0.000000
											CHANNELS 3 Xrotation Yrotation Zrotation
											End Site
											{
												OFFSET 0.057701 4.578827 0.399218
											}
										}
									}
								}
								JOINT newVegas:LeftHandRing1
								{
									OFFSET 17.732719 0.121887 -4.201567
									CHANNELS 3 Xrotation Yrotation Zrotation
									JOINT newVegas:LeftHandRing2
									{
										OFFSET 2.733170 0.000000 0.000000
										CHANNELS 3 Xrotation Yrotation Zrotation
										JOINT newVegas:LeftHandRing3
										{
											OFFSET 3.178268 0.000000 0.000000
											CHANNELS 3 Xrotation Yrotation Zrotation
											End Site
											{
												OFFSET 0.119102 3.170624 0.185394
											}
										}
									}
								}
								JOINT newVegas:LeftHandPinky1
								{
									OFFSET 15.989624 -0.606689 -7.535461
									CHANNELS 3 Xrotation Yrotation Zrotation
									JOINT newVegas:LeftHandPinky2
									{
										OFFSET 2.538986 0.000000 0.000000
										CHANNELS 3 Xrotation Yrotation Zrotation
										JOINT newVegas:LeftHandPinky3
										{
											OFFSET 2.593102 0.000000 0.000000
											CHANNELS 3 Xrotation Yrotation Zrotation
											End Site
											{
												OFFSET -0.150902 2.584198 0.152708
											}
										}
									}
								}
							}
							JOINT newVegas:Left_Sleeve
							{
								OFFSET 0.267448 -0.649796 0.577675
								CHANNELS 3 Xrotation Yrotation Zrotation
								End Site
								{
									OFFSET 0.000000 15.991241 0.000000
								}
							}
							JOINT newVegas:Left_CapeC
							{
								OFFSET 15.715958 -8.608795 -6.935905
								CHANNELS 3 Xrotation Yrotation Zrotation
								JOINT newVegas:Left_CapeC1
								{
									OFFSET 0.000000 -8.688499 0.000000
									CHANNELS 3 Xrotation Yrotation Zrotation
									End Site
									{
										OFFSET 0.000000 8.688499 0.000000
									}
								}
							}
						}
						JOINT newVegas:Left_CapeB
						{
							OFFSET 26.118385 -8.608795 -7.079235
							CHANNELS 3 Xrotation Yrotation Zrotation
							JOINT newVegas:Left_CapeB1
							{
								OFFSET 0.000000 -8.688499 0.000000
								CHANNELS 3 Xrotation Yrotation Zrotation
								End Site
								{
									OFFSET 0.000000 8.688499 0.000000
								}
							}
						}
						JOINT newVegas:Left_CapeA
						{
							OFFSET 5.115639 -8.608795 -10.395809
							CHANNELS 3 Xrotation Yrotation Zrotation
							JOINT newVegas:Left_CapeA1
							{
								OFFSET 0.000000 -8.688499 0.000000
								CHANNELS 3 Xrotation Yrotation Zrotation
								End Site
								{
									OFFSET 0.000000 8.688499 0.000000
								}
							}
						}
					}
				}
				JOINT newVegas:RightShoulder
				{
					OFFSET -15.263000 10.923401 -0.547700
					CHANNELS 3 Xrotation Yrotation Zrotation
					JOINT newVegas:RightArm
					{
						OFFSET -25.438599 -2.830597 -13.032500
						CHANNELS 3 Xrotation Yrotation Zrotation
						JOINT newVegas:RightForeArm
						{
							OFFSET -29.960503 0.000000 0.000000
							CHANNELS 3 Xrotation Yrotation Zrotation
							JOINT newVegas:RightHand
							{
								OFFSET -27.849251 0.000000 0.000000
								CHANNELS 3 Xrotation Yrotation Zrotation
								JOINT newVegas:RightHandThumb1
								{
									OFFSET -4.487587 -3.305161 6.305391
									CHANNELS 3 Xrotation Yrotation Zrotation
									JOINT newVegas:RightHandThumb2
									{
										OFFSET -5.480453 -3.164139 3.164143
										CHANNELS 3 Xrotation Yrotation Zrotation
										JOINT newVegas:RightHandThumb3
										{
											OFFSET -5.159721 -2.978973 2.978967
											CHANNELS 3 Xrotation Yrotation Zrotation
											End Site
											{
												OFFSET -2.494507 5.926697 1.738678
											}
										}
									}
								}
								JOINT newVegas:RightHandIndex1
								{
									OFFSET -18.578728 -0.527832 5.208049
									CHANNELS 3 Xrotation Yrotation Zrotation
									JOINT newVegas:RightHandIndex2
									{
										OFFSET -3.192009 0.000000 0.000000
										CHANNELS 3 Xrotation Yrotation Zrotation
										JOINT newVegas:RightHandIndex3
										{
											OFFSET -3.835129 0.000000 0.000000
											CHANNELS 3 Xrotation Yrotation Zrotation
											End Site
											{
												OFFSET 0.034599 3.816971 0.371180
											}
										}
									}
								}
								JOINT newVegas:RightHandMiddle1
								{
									OFFSET -18.476105 0.000000 0.000000
									CHANNELS 3 Xrotation Yrotation Zrotation
									JOINT newVegas:RightHandMiddle2
									{
										OFFSET -3.324875 0.000000 0.000000
										CHANNELS 3 Xrotation Yrotation Zrotation
										JOINT newVegas:RightHandMiddle3
										{
											OFFSET -4.596550 0.000000 0.000000
											CHANNELS 3 Xrotation Yrotation Zrotation
											End Site
											{
												OFFSET -0.057701 4.578827 0.399218
											}
										}
									}
								}
								JOINT newVegas:RightHandRing1
								{
									OFFSET -17.732719 0.121887 -4.201567
									CHANNELS 3 Xrotation Yrotation Zrotation
									JOINT newVegas:RightHandRing2
									{
										OFFSET -2.733170 0.000000 0.000000
										CHANNELS 3 Xrotation Yrotation Zrotation
										JOINT newVegas:RightHandRing3
										{
											OFFSET -3.178268 0.000000 0.000000
											CHANNELS 3 Xrotation Yrotation Zrotation
											End Site
											{
												OFFSET -0.119102 3.170624 0.185394
											}
										}
									}
								}
								JOINT newVegas:RightHandPinky1
								{
									OFFSET -15.989624 -0.606689 -7.535461
									CHANNELS 3 Xrotation Yrotation Zrotation
									JOINT newVegas:RightHandPinky2
									{
										OFFSET -2.538986 0.000000 0.000000
										CHANNELS 3 Xrotation Yrotation Zrotation
										JOINT newVegas:RightHandPinky3
										{
											OFFSET -2.593102 0.000000 0.000000
											CHANNELS 3 Xrotation Yrotation Zrotation
											End Site
											{
												OFFSET 0.150902 2.584198 0.152708
											}
										}
									}
								}
							}
							JOINT newVegas:Right_CapeC
							{
								OFFSET -15.715958 -8.608795 -6.935905
								CHANNELS 3 Xrotation Yrotation Zrotation
								JOINT newVegas:Right_CapeC1
								{
									OFFSET 0.000000 -8.688499 0.000000
									CHANNELS 3 Xrotation Yrotation Zrotation
									End Site
									{
										OFFSET 0.000000 8.688499 0.000000
									}
								}
							}
							JOINT newVegas:Right_Sleeve
							{
								OFFSET -0.267448 -0.649994 0.577675
								CHANNELS 3 Xrotation Yrotation Zrotation
								End Site
								{
									OFFSET 0.000000 15.991302 0.000000
								}
							}
						}
						JOINT newVegas:Right_CapeA
						{
							OFFSET -5.115540 -8.608795 -10.395824
							CHANNELS 3 Xrotation Yrotation Zrotation
							JOINT newVegas:Right_CapeA1
							{
								OFFSET 0.000000 -8.688499 0.000000
								CHANNELS 3 Xrotation Yrotation Zrotation
								End Site
								{
									OFFSET 0.000000 8.688499 0.000000
								}
							}
						}
						JOINT newVegas:Right_CapeB
						{
							OFFSET -26.118187 -8.608795 -7.079266
							CHANNELS 3 Xrotation Yrotation Zrotation
							JOINT newVegas:Right_CapeB1
							{
								OFFSET 0.000000 -8.688499 0.000000
								CHANNELS 3 Xrotation Yrotation Zrotation
								End Site
								{
									OFFSET 0.000000 8.688499 0.000000
								}
							}
						}
					}
				}
				JOINT newVegas:Left_Collar
				{
					OFFSET 18.625099 8.655502 8.828100
					CHANNELS 3 Xrotation Yrotation Zrotation
					JOINT newVegas:Left_Collar1
					{
						OFFSET 14.783401 10.540405 -1.259500
						CHANNELS 3 Xrotation Yrotation Zrotation
						End Site
						{
							OFFSET 0.000000 18.199875 0.000000
						}
					}
				}
				JOINT newVegas:Collar_Back
				{
					OFFSET 0.000000 15.630707 -20.132601
					CHANNELS 3 Xrotation Yrotation Zrotation
					End Site
					{
						OFFSET 0.000000 22.523010 0.000000
					}
				}
				JOINT newVegas:Left_Peck
				{
					OFFSET 17.239599 -5.132599 25.482599
					CHANNELS 3 Xrotation Yrotation Zrotation
					End Site
					{
						OFFSET 0.000000 22.523010 0.000000
					}
				}
				JOINT newVegas:Right_Peck
				{
					OFFSET -17.239599 -5.132202 25.482599
					CHANNELS 3 Xrotation Yrotation Zrotation
					End Site
					{
						OFFSET 0.000000 22.523010 0.000000
					}
				}
				JOINT newVegas:Right_Collar
				{
					OFFSET -18.625099 8.655792 8.828100
					CHANNELS 3 Xrotation Yrotation Zrotation
					JOINT newVegas:Right_Collar1
					{
						OFFSET -14.783401 10.539993 -1.259500
						CHANNELS 3 Xrotation Yrotation Zrotation
						End Site
						{
							OFFSET 0.000000 18.199631 0.000000
						}
					}
				}
			}
		}
		JOINT newVegas:Belly
		{
			OFFSET 0.000000 -6.540398 9.014299
			CHANNELS 3 Xrotation Yrotation Zrotation
			End Site
			{
				OFFSET 0.000000 11.566666 0.000000
			}
		}
	}
	JOINT newVegas:ElvisFacialAnim_Joint
	{
		OFFSET 1.000000 -95.330101 -8.825800
		CHANNELS 3 Xrotation Yrotation Zrotation
		End Site
		{
			OFFSET 0.000000 35.315800 0.000000
		}
	}
}
MOTION
Frames: 4
Frame Time: 0.016667
1.006150 87.679909 5.229422 5.323808 -6.823853 -1.204704 -0.000000 0.000000 0.000000 -45.496150 3.685614 23.143461 64.127198 6.890515 -1.787202 14.073003 6.616739 -13.901400 -0.000002 0.000003 -0.000003 -0.000001 -0.000001 0.000001 -34.217158 -6.399217 4.570835 49.462553 -1.723348 -1.148859 -22.636686 -5.421743 -3.771867 -0.000000 -0.000001 0.000000 0.000001 -0.000001 -0.000001 9.161155 3.404428 5.116645 6.474934 1.246103 1.050139 6.471419 1.202599 1.091237 0.852925 -0.239619 -0.556569 0.852934 -0.239618 -0.556569 -0.000002 0.000000 0.000000 0.853010 -0.239611 -0.556570 0.852861 -0.239619 -0.556568 0.000001 0.000000 -0.000000 -0.000002 0.000000 -0.000000 1.724437 -9.915035 -14.934996 -25.063144 2.043298 -69.542172 -0.000009 -31.031284 -0.000025 13.812948 3.247838 3.605219 -6.000705 -6.126809 4.616781 7.611076 24.884949 2.404807 -0.000003 0.000001 -0.000003 0.627455 4.865869 -25.301785 0.596889 2.578233 -26.066010 -0.000001 0.000001 0.000002 0.227918 3.736623 -13.565755 0.647517 2.679122 -27.169734 -0.000001 -0.000001 -0.000002 0.497549 4.571296 -22.150783 0.640359 2.665139 -27.016031 -0.000001 -0.000001 0.000001 0.820472 5.237561 -29.403131 0.162684 1.372387 -13.519837 -0.000000 -0.000002 -0.000001 0.000000 0.000001 -0.000001 0.000000 0.000001 -0.000001 0.000000 0.000001 -0.000001 0.000001 0.000000 -0.000001 0.000001 0.000000 -0.000001 0.000001 0.000000 -0.000001 0.000001 0.000000 -0.000001 4.830913 17.858059 5.566075 -15.198216 0.576453 66.754990 0.000002 21.881884 0.000010 11.551352 9.546656 1.170294 -7.540277 -3.885184 -4.751900 7.955438 -28.077789 -3.121214 0.000001 0.000001 0.000001 0.082434 -1.088638 14.291447 0.320871 -1.700379 21.371539 -0.000000 0.000001 0.000003 0.522811 -4.330215 26.060471 0.321167 -1.701132 21.381520 -0.000000 0.000002 0.000002 2.075035 -6.645765 34.808912 0.321873 -1.702917 21.404841 -0.000002 0.000001 0.000001 1.502787 -7.627467 42.127774 0.321172 -1.701127 21.381409 0.000000 0.000002 -0.000002 -0.000001 -0.000001 -0.000000 -0.000001 0.000000 -0.000000 -0.000001 -0.000000 -0.000000 0.000002 -0.000001 -0.000001 0.000002 -0.000001 -0.000000 0.000002 -0.000001 -0.000001 0.000002 -0.000001 -0.000000 0.000001 -0.000000 -0.000001 0.000001 -0.000000 -0.000001 0.000001 -0.000000 -0.000001 0.000001 -0.000000 -0.000001 0.000001 -0.000000 -0.000001 0.000001 -0.000000 -0.000001 0.000001 -0.000000 -0.000001 -0.000001 0.000000 0.000000 -0.000000 0.000000 0.000000 
0.943021 87.775826 5.286980 5.344433 -6.832404 -0.968562 0.000000 0.000000 0.000000 -45.895664 4.964692 23.625619 63.544788 7.437920 -1.815875 14.035374 5.248700 -13.349462 0.000003 0.000001 0.000000 -0.000001 -0.000001 0.000000 -34.234769 -6.328386 4.322265 49.353328 -2.036484 -1.142379 -22.488603 -5.037995 -3.630661 0.000000 -0.000000 0.000000 0.000003 0.000001 -0.000001 9.153794 3.411897 5.108809 6.470719 1.252375 1.050136 6.467357 1.205347 1.091239 0.852959 -0.244711 -0.552395 0.852959 -0.244710 -0.552392 -0.000001 0.000000 0.000000 0.852898 -0.244704 -0.552391 0.853040 -0.244706 -0.552393 -0.000004 0.000000 -0.000000 -0.000001 0.000000 0.000000 1.719458 -9.903875 -14.934632 -24.909454 1.975395 -69.518478 -0.000001 -31.046232 -0.000002 13.575647 3.329221 3.235260 -6.000700 -6.126801 4.616783 7.611068 24.884946 2.404799 -0.000002 -0.000002 -0.000005 0.631447 4.874267 -25.392804 0.600993 2.586563 -26.156880 -0.000000 0.000000 0.000004 0.229974 3.745038 -13.650448 0.651210 2.686308 -27.248789 -0.000001 -0.000001 -0.000000 0.500615 4.578771 -22.229906 0.643792 2.671849 -27.089857 0.000001 -0.000001 0.000001 0.824203 5.244124 -29.477112 0.164336 1.379239 -13.588674 0.000001 -0.000005 0.000002 -0.000000 0.000000 -0.000000 -0.000000 0.000000 -0.000000 -0.000000 0.000000 -0.000000 0.000000 0.000001 0.000001 0.000000 0.000001 -0.000000 0.000000 0.000001 0.000001 0.000000 0.000001 0.000001 4.818716 17.839438 5.583534 -15.265575 -0.058705 66.673814 0.000000 21.871306 0.000006 12.264136 9.590644 0.896153 -7.540279 -3.885182 -4.751900 7.955442 -28.077793 -3.121206 0.000001 -0.000001 0.000001 0.081301 -1.093038 14.345790 0.324227 -1.708925 21.484188 -0.000001 -0.000002 -0.000003 0.524627 -4.333899 26.110830 0.324038 -1.708439 21.477907 0.000000 -0.000002 -0.000000 2.078617 -6.647912 34.855842 0.324539 -1.709705 21.494447 0.000000 -0.000001 0.000003 1.506864 -7.629896 42.171418 0.323655 -1.707444 21.464858 -0.000003 0.000005 0.000001 -0.000000 -0.000000 -0.000000 -0.000000 -0.000000 -0.000000 -0.000000 0.000000 -0.000000 0.000001 0.000000 0.000000 0.000001 0.000000 0.000000 0.000001 0.000000 0.000000 0.000001 -0.000000 0.000000 -0.000002 -0.000000 -0.000000 -0.000002 -0.000000 -0.000000 -0.000002 -0.000000 -0.000000 -0.000002 -0.000000 -0.000000 -0.000002 -0.000000 -0.000000 -0.000002 -0.000000 -0.000000 -0.000002 -0.000000 -0.000000 0.000000 -0.000000 0.000000 0.000000 0.000000 0.000000 
0.824969 87.906418 5.440104 5.371096 -6.815420 -0.654637 -0.000000 0.000001 -0.000000 -46.264915 5.513107 22.917231 62.840418 7.947239 -1.834169 13.724843 3.858104 -12.641408 0.000001 -0.000000 0.000000 -0.000001 0.000001 0.000001 -34.054671 -6.220075 4.048771 49.233650 -2.391838 -1.133745 -22.600007 -4.622566 -3.502223 0.000000 -0.000001 0.000000 -0.000001 0.000001 -0.000002 9.131545 3.434980 5.095116 6.458227 1.270575 1.050138 6.454851 1.219981 1.086655 0.853093 -0.257100 -0.549878 0.853106 -0.257102 -0.549873 0.000001 0.000000 0.000000 0.853159 -0.257099 -0.549877 0.853080 -0.257107 -0.549875 0.000001 0.000000 0.000000 0.000001 0.000000 0.000000 1.707811 -9.871292 -14.933498 -24.720365 1.875866 -69.543388 -0.000018 -31.071808 -0.000043 13.451190 3.530299 2.736903 -6.000700 -6.126801 4.616778 7.611072 24.884944 2.404802 0.000001 -0.000000 -0.000005 0.643183 4.898770 -25.658640 0.613023 2.610897 -26.422274 -0.000003 -0.000000 -0.000002 0.236011 3.769628 -13.897909 0.662086 2.707296 -27.479825 -0.000003 -0.000000 -0.000003 0.509622 4.600629 -22.461186 0.653881 2.691473 -27.305539 0.000001 -0.000001 0.000003 0.835141 5.263305 -29.693359 0.169204 1.399258 -13.789950 0.000001 -0.000001 -0.000003 -0.000000 -0.000000 0.000000 -0.000000 -0.000000 0.000000 0.000000 -0.000000 0.000000 0.000000 -0.000001 -0.000000 0.000001 -0.000001 -0.000000 0.000000 -0.000001 -0.000000 0.000000 -0.000001 -0.000000 4.783115 17.784933 5.634551 -15.255327 -0.757015 66.514486 0.000001 21.916134 -0.000001 12.968070 9.611771 0.635157 -7.540276 -3.885184 -4.751899 7.955441 -28.077789 -3.121210 -0.000000 -0.000003 -0.000001 0.084245 -1.104393 14.506156 0.334201 -1.734016 21.816002 0.000000 0.000000 0.000001 0.529954 -4.344714 26.259328 0.332573 -1.729953 21.762200 0.000002 0.000001 0.000003 2.089184 -6.654223 34.994215 0.332475 -1.729697 21.758898 0.000001 0.000001 0.000001 1.515887 -7.639750 42.300004 0.331032 -1.726096 21.711150 -0.000000 -0.000000 0.000000 -0.000002 0.000000 0.000000 -0.000002 0.000000 -0.000000 -0.000002 0.000000 -0.000000 0.000002 0.000000 -0.000000 0.000002 0.000000 -0.000000 0.000002 0.000000 -0.000000 0.000002 -0.000000 -0.000000 0.000002 0.000000 0.000001 0.000002 0.000000 0.000001 0.000002 0.000000 0.000001 0.000002 0.000000 0.000001 0.000002 0.000000 0.000001 0.000002 0.000000 0.000001 0.000002 0.000000 0.000001 -0.000001 0.000000 -0.000000 -0.000000 0.000001 -0.000000 
0.646356 88.095680 5.659098 5.402315 -6.773040 -0.264360 0.000000 -0.000000 0.000000 -46.568404 6.399019 21.730512 61.841141 8.084855 -1.850041 12.879134 2.526882 -11.842119 -0.000002 0.000001 -0.000000 -0.000001 0.000003 -0.000000 -33.736080 -6.083418 3.755869 48.976776 -2.783902 -1.124172 -22.730379 -4.184818 -3.397161 0.000000 -0.000001 -0.000000 0.000003 0.000001 -0.000001 9.095633 3.466557 5.059583 6.437238 1.301645 1.047208 6.434239 1.243749 1.079201 0.853192 -0.275819 -0.548941 0.853171 -0.275817 -0.548949 -0.000001 0.000000 -0.000001 0.853182 -0.275821 -0.548942 0.853266 -0.275822 -0.548941 -0.000001 -0.000000 0.000000 -0.000001 0.000000 -0.000000 1.689956 -9.818014 -14.926636 -24.496738 1.749455 -69.601472 0.000002 -31.094805 -0.000006 13.416803 3.707236 2.149832 -6.000701 -6.126809 4.616781 7.611075 24.884949 2.404801 -0.000002 -0.000001 -0.000006 0.662406 4.938234 -26.088505 0.632715 2.650124 -26.851379 -0.000002 0.000001 0.000001 0.246003 3.809340 -14.298168 0.679859 2.741153 -27.853669 -0.000001 -0.000000 -0.000002 0.524391 4.635887 -22.835378 0.670381 2.723150 -27.654685 -0.000000 -0.000002 -0.000000 0.852988 5.294253 -30.043393 0.177263 1.431650 -14.115803 0.000003 -0.000003 0.000001 0.000000 -0.000001 0.000001 0.000000 -0.000001 0.000001 0.000000 -0.000001 0.000000 -0.000000 0.000000 0.000001 0.000000 -0.000001 -0.000000 -0.000000 0.000000 0.000001 0.000000 -0.000001 0.000000 4.725668 17.696573 5.717013 -15.174698 -1.505987 66.289923 -0.000002 21.983647 -0.000012 13.660423 9.640869 0.382067 -7.540281 -3.885179 -4.751899 7.955440 -28.077789 -3.121212 -0.000002 -0.000002 -0.000001 0.089121 -1.122870 14.767902 0.350768 -1.774862 22.357634 0.000000 0.000001 -0.000000 0.538736 -4.362379 26.501878 0.346746 -1.765031 22.227071 0.000002 -0.000001 0.000001 2.106478 -6.664464 35.220512 0.345659 -1.762364 22.191531 -0.000005 -0.000001 0.000000 1.527460 -7.652301 42.510336 0.343293 -1.756545 22.114469 -0.000003 0.000005 -0.000000 -0.000001 0.000000 -0.000000 -0.000001 0.000000 -0.000000 -0.000001 0.000000 -0.000000 0.000000 -0.000001 -0.000000 0.000000 -0.000001 0.000000 0.000000 -0.000001 -0.000000 0.000000 -0.000001 0.000000 -0.000001 -0.000000 -0.000000 -0.000001 -0.000000 -0.000000 -0.000001 -0.000000 -0.000000 -0.000001 -0.000000 -0.000000 -0.000001 -0.000000 -0.000000 -0.000001 -0.000000 -0.000000 -0.000001 -0.000000 -0.000000 0.000000 0.000000 0.000000 0.000000 -0.000000 0.000000 
